<svg id="Capa_1" enable-background="new 0 0 512 512" height="512" viewBox="0 0 512 512" width="512" xmlns="http://www.w3.org/2000/svg"><g><path d="m256 155.545c24.815 0 45.005-20.189 45.005-45.006 0-24.815-20.189-45.005-45.005-45.005s-45.005 20.189-45.005 45.005 20.189 45.006 45.005 45.006zm0-75.011c16.545 0 30.005 13.46 30.005 30.005s-13.46 30.006-30.005 30.006-30.005-13.461-30.005-30.006 13.46-30.005 30.005-30.005z"/><path d="m171.617 103.387c-.421 4.859-.422 9.436 0 14.306l-17.517 19.091c-3.886 4.237-4.567 10.429-1.692 15.408l15.724 27.236c2.875 4.977 8.581 7.48 14.189 6.236l25.282-5.622c3.932 2.744 8.097 5.155 12.411 7.185l7.765 24.684c1.726 5.483 6.749 9.168 12.498 9.168h31.447c5.751 0 10.773-3.686 12.497-9.169l7.766-24.683c4.315-2.03 8.479-4.441 12.411-7.185l25.283 5.622c5.608 1.25 11.313-1.262 14.188-6.238l15.724-27.235c2.874-4.979 2.194-11.17-1.692-15.407l-17.517-19.091c.421-4.861.422-9.438 0-14.308l17.516-19.091c3.886-4.236 4.565-10.428 1.691-15.407l-15.724-27.232c-2.874-4.98-8.574-7.488-14.19-6.239l-25.281 5.621c-3.936-2.746-8.101-5.157-12.411-7.185l-7.764-24.679c-1.724-5.486-6.747-9.173-12.498-9.173h-31.447c-5.75 0-10.772 3.686-12.498 9.17l-7.765 24.682c-4.312 2.028-8.476 4.439-12.411 7.185l-25.281-5.621c-5.613-1.248-11.316 1.259-14.191 6.238l-15.724 27.234c-2.874 4.979-2.193 11.17 1.693 15.407zm8.808-53.028 25.238 5.612c3.33.741 6.845.008 9.644-2.01 3.79-2.732 7.85-5.083 12.067-6.986 3.137-1.417 5.523-4.092 6.545-7.339l7.75-24.636h28.661l7.75 24.635c1.021 3.248 3.407 5.923 6.547 7.341 4.215 1.902 8.275 4.253 12.066 6.986 2.799 2.019 6.313 2.752 9.644 2.01l25.237-5.612 14.331 24.821-17.485 19.056c-2.309 2.515-3.433 5.924-3.084 9.356.484 4.746.483 9.147 0 13.893-.348 3.429.774 6.838 3.081 9.353l17.488 19.06-14.331 24.822-25.237-5.613c-3.327-.739-6.846-.009-9.644 2.01-3.785 2.729-7.845 5.08-12.068 6.986-3.138 1.418-5.523 4.093-6.544 7.339l-7.751 24.637h-28.661l-7.751-24.638c-1.021-3.246-3.407-5.921-6.545-7.338-4.22-1.904-8.279-4.255-12.067-6.987-2.798-2.018-6.315-2.751-9.643-2.009l-25.238 5.613-14.33-24.821 17.486-19.06c2.309-2.516 3.432-5.926 3.083-9.354-.473-4.654-.493-9.05 0-13.89.35-3.433-.774-6.845-3.082-9.356l-17.486-19.06z"/><path d="m431.49 355.6h-28.105v-14.914c0-45.433-24.536-87.155-70.445-109.462-1.26-.612-5.435-2.408-6.694-2.771-3.517-1.016-7.303-.559-10.353 1.52-3.272 2.231-5.226 5.929-5.226 9.889v8.252c0 8.547-6.953 15.5-15.5 15.5h-78.333c-8.547 0-15.5-6.953-15.5-15.5v-8.252c0-3.961-1.954-7.657-5.226-9.889-3.396-2.317-7.818-2.571-11.168-1.257-31.648 12.41-55.934 37.53-67.875 67.605-1.528 3.85.354 8.21 4.203 9.738 3.85 1.526 8.209-.354 9.738-4.203 4.831-12.167 11.884-23.227 20.646-32.681-2.162 7.016-3.297 14.415-3.297 22.015v144.142c0 17.855 14.527 32.382 32.383 32.382h150.527c17.856 0 32.383-14.526 32.383-32.382v-144.143c0-7.618-1.14-15.033-3.312-22.062 18.044 19.498 28.05 44.759 28.05 71.559v101.905c0 30.001-24.408 54.409-54.41 54.409h-19.263c-4.143 0-7.5 3.357-7.5 7.5s3.357 7.5 7.5 7.5h19.263c38.272 0 69.41-31.137 69.41-69.409v-9.071h28.105c16.515 0 29.95-13.436 29.95-29.949v-18.021c-.001-16.515-13.436-29.95-29.951-29.95zm-82.844 79.731c0 9.584-7.798 17.382-17.383 17.382h-150.527c-9.585 0-17.383-7.798-17.383-17.382v-144.142c0-18.481 8.364-35.489 22.979-46.802v3.725c0 16.817 13.683 30.5 30.5 30.5h78.333c16.817 0 30.5-13.683 30.5-30.5v-3.726c14.615 11.314 22.979 28.323 22.979 46.803v144.142zm97.794-31.761c0 8.243-6.707 14.949-14.95 14.949h-28.105v-47.919h28.105c8.243 0 14.95 6.707 14.95 14.95z"/><path d="m279.712 497h-101.687c-30.001 0-54.409-24.408-54.409-54.403.032-42.021.121-105.595.233-108.991.217-4.094-2.898-7.611-7-7.88-4.151-.277-7.703 2.861-7.974 6.995-.053.815-.097 9.993-.133 22.879h-28.232c-16.514 0-29.95 13.436-29.95 29.95v18.021c0 16.514 13.436 29.949 29.95 29.949h28.114c-.003 3.496-.006 6.57-.008 9.071 0 38.272 31.137 69.409 69.409 69.409h101.687c4.143 0 7.5-3.357 7.5-7.5s-3.358-7.5-7.5-7.5zm-199.202-78.48c-8.243 0-14.95-6.706-14.95-14.949v-18.021c0-8.243 6.707-14.95 14.95-14.95h28.198c-.031 15.491-.054 33.185-.069 47.92z"/><path d="m214.513 347.626h-2.217c-13.341 0-24.195 10.854-24.195 24.194v14.977c0 13.342 10.854 24.195 24.195 24.195h2.217c13.341 0 24.195-10.854 24.195-24.195v-14.977c.001-13.341-10.853-24.194-24.195-24.194zm9.196 39.171c0 5.07-4.125 9.195-9.195 9.195h-2.217c-5.07 0-9.195-4.125-9.195-9.195v-14.977c0-5.069 4.125-9.194 9.195-9.194h2.217c5.07 0 9.195 4.125 9.195 9.194z"/><path d="m299.703 347.626h-2.217c-13.342 0-24.195 10.854-24.195 24.194v14.977c0 13.342 10.854 24.195 24.195 24.195h2.217c13.342 0 24.195-10.854 24.195-24.195v-14.977c0-13.341-10.853-24.194-24.195-24.194zm9.195 39.171c0 5.07-4.125 9.195-9.195 9.195h-2.217c-5.07 0-9.195-4.125-9.195-9.195v-14.977c0-5.069 4.125-9.194 9.195-9.194h2.217c5.07 0 9.195 4.125 9.195 9.194z"/></g></svg>