<svg width="36" height="36" viewBox="0 0 36 36" fill="none" xmlns="http://www.w3.org/2000/svg">
<path d="M0 5C0 2.23858 2.23858 0 5 0H31C33.7614 0 36 2.23858 36 5V9.14692C36 11.2091 34.6804 13.0399 32.7241 13.692C28.5933 15.0689 28.2926 20.7967 32.2566 22.5985L33.069 22.9677C34.854 23.7791 36 25.5588 36 27.5196V31C36 33.7614 33.7614 36 31 36H5C2.23858 36 0 33.7614 0 31V5Z" fill="#009CF0"/>
<g clip-path="url(#clip0)">
<path d="M17.55 11.3697C19.0767 11.3697 20.3189 10.1276 20.3189 8.60074C20.3189 7.07404 19.0768 5.83188 17.55 5.83188C16.0232 5.83188 14.7811 7.07398 14.7811 8.60074C14.7811 10.1275 16.0232 11.3697 17.55 11.3697ZM17.55 6.75473C18.5679 6.75473 19.396 7.58284 19.396 8.60074C19.396 9.61865 18.5679 10.4468 17.55 10.4468C16.5321 10.4468 15.704 9.61865 15.704 8.60074C15.704 7.58284 16.5321 6.75473 17.55 6.75473Z" fill="white"/>
<path d="M12.3585 8.16071C12.3326 8.45965 12.3325 8.74125 12.3585 9.04087L11.2808 10.2154C11.0417 10.4761 10.9998 10.857 11.1767 11.1634L12.1441 12.839C12.3209 13.1452 12.672 13.2992 13.017 13.2227L14.5725 12.8768C14.8144 13.0456 15.0706 13.1939 15.336 13.3188L15.8138 14.8375C15.9199 15.1748 16.229 15.4015 16.5827 15.4015H18.5174C18.8712 15.4015 19.1802 15.1748 19.2863 14.8374L19.7641 13.3188C20.0295 13.1939 20.2857 13.0456 20.5276 12.8768L22.0831 13.2227C22.4281 13.2996 22.7791 13.145 22.956 12.8389L23.9234 11.1633C24.1002 10.857 24.0584 10.4761 23.8193 10.2154L22.7416 9.04087C22.7675 8.7418 22.7676 8.46021 22.7416 8.16059L23.8192 6.98604C24.0583 6.72543 24.1001 6.34448 23.9233 6.03815L22.9559 4.36275C22.7791 4.05636 22.4284 3.90206 22.0829 3.9789L20.5275 4.32473C20.2853 4.15578 20.0291 4.00745 19.7639 3.88268L19.2863 2.36434C19.1802 2.02682 18.8712 1.79999 18.5173 1.79999H16.5826C16.2289 1.79999 15.9199 2.02676 15.8137 2.36416L15.336 3.88268C15.0707 4.00745 14.8145 4.15578 14.5724 4.32473L13.017 3.9789C12.6717 3.90212 12.3208 4.05636 12.1439 4.36269L11.1765 6.03821C10.9997 6.34454 11.0416 6.72543 11.2807 6.98611L12.3585 8.16071ZM12.9004 4.89825L14.4531 5.24352C14.658 5.28911 14.8742 5.24401 15.0464 5.11985C15.2796 4.95177 15.5294 4.80713 15.7888 4.69005C15.9818 4.60287 16.1286 4.4383 16.1915 4.23853L16.6683 2.72284H18.4316L18.9084 4.23847C18.9713 4.4383 19.1181 4.60287 19.3112 4.69011C19.5706 4.80713 19.8203 4.95177 20.0536 5.11992C20.2258 5.24413 20.442 5.28923 20.6469 5.24358L22.1996 4.89831L23.0813 6.42538L22.0055 7.59777C21.8635 7.7525 21.7943 7.96224 21.8158 8.17339C21.8456 8.46538 21.8455 8.73614 21.8158 9.02813C21.7944 9.23909 21.8634 9.44883 22.0054 9.60356L23.0813 10.7762L22.1996 12.3033L20.6469 11.958C20.4422 11.9125 20.2257 11.9574 20.0536 12.0817C19.8207 12.2496 19.5709 12.3942 19.3111 12.5115C19.1181 12.5987 18.9713 12.7633 18.9085 12.963L18.4316 14.4787H16.6683L16.1914 12.9629C16.1286 12.7632 15.9818 12.5986 15.7888 12.5115C15.5291 12.3943 15.2794 12.2497 15.0464 12.0816C14.8742 11.9574 14.6579 11.9123 14.4531 11.958L12.9004 12.3033L12.0187 10.7763L13.0945 9.60362C13.2366 9.44883 13.3057 9.23903 13.2842 9.02813C13.2551 8.7418 13.2539 8.47134 13.2842 8.17357C13.3058 7.96236 13.2366 7.75244 13.0946 7.59796L12.0188 6.42532L12.9004 4.89825Z" fill="white"/>
<path d="M28.3468 23.6777H26.6177V22.7602C26.6177 19.965 25.1081 17.3981 22.2836 16.0257C22.2061 15.988 21.9493 15.8776 21.8718 15.8552C21.6554 15.7927 21.4225 15.8208 21.2349 15.9487C21.0336 16.086 20.9133 16.3135 20.9133 16.5571V17.0648C20.9133 17.5907 20.4856 18.0184 19.9597 18.0184H15.1404C14.6146 18.0184 14.1868 17.5907 14.1868 17.0648V16.5571C14.1868 16.3134 14.0666 16.0861 13.8653 15.9487C13.6563 15.8062 13.3843 15.7906 13.1782 15.8714C11.2311 16.6349 9.73693 18.1804 9.00227 20.0307C8.90827 20.2676 9.02405 20.5358 9.26086 20.6298C9.49772 20.7237 9.7659 20.608 9.85997 20.3712C10.1572 19.6227 10.5911 18.9422 11.1302 18.3606C10.9972 18.7922 10.9273 19.2474 10.9273 19.715V28.5831C10.9273 29.6816 11.8211 30.5754 12.9197 30.5754H22.1806C23.2792 30.5754 24.1729 29.6817 24.1729 28.5831V19.7149C24.1729 19.2463 24.1028 18.7901 23.9691 18.3576C25.0793 19.5572 25.6949 21.1113 25.6949 22.7602V29.0297C25.6949 30.8755 24.1932 32.3771 22.3474 32.3771H21.1623C20.9074 32.3771 20.7008 32.5837 20.7008 32.8386C20.7008 33.0935 20.9074 33.3 21.1623 33.3H22.3474C24.702 33.3 26.6177 31.3843 26.6177 29.0297V28.4716H28.3468C29.3629 28.4716 30.1895 27.645 30.1895 26.6291V25.5204C30.1894 24.5043 29.3628 23.6777 28.3468 23.6777V23.6777ZM23.2499 28.5831C23.2499 29.1727 22.7702 29.6525 22.1805 29.6525H12.9195C12.3298 29.6525 11.8501 29.1727 11.8501 28.5831V19.7149C11.8501 18.5779 12.3647 17.5315 13.2638 16.8355V17.0647C13.2638 18.0993 14.1056 18.9412 15.1403 18.9412H19.9596C20.9942 18.9412 21.8361 18.0993 21.8361 17.0647V16.8355C22.7352 17.5315 23.2498 18.578 23.2498 19.7149V28.5831H23.2499ZM29.2666 26.629C29.2666 27.1361 28.8539 27.5487 28.3468 27.5487H26.6177V24.6006H28.3468C28.8539 24.6006 29.2666 25.0132 29.2666 25.5204V26.629Z" fill="white"/>
<path d="M19.0089 32.3771H12.7527C10.907 32.3771 9.4053 30.8755 9.4053 29.0301C9.40727 26.4448 9.41275 22.5335 9.41964 22.3246C9.43299 22.0727 9.24134 21.8563 8.98897 21.8398C8.73359 21.8227 8.51506 22.0158 8.49838 22.2701C8.49512 22.3203 8.49242 22.8849 8.4902 23.6777H6.75327C5.73727 23.6777 4.91064 24.5043 4.91064 25.5203V26.629C4.91064 27.645 5.73727 28.4716 6.75327 28.4716H8.48294C8.48276 28.6867 8.48257 28.8758 8.48245 29.0297C8.48245 31.3843 10.3981 33.3 12.7527 33.3H19.0089C19.2638 33.3 19.4703 33.0934 19.4703 32.8385C19.4703 32.5837 19.2637 32.3771 19.0089 32.3771V32.3771ZM6.75327 27.5488C6.24613 27.5488 5.8335 27.1362 5.8335 26.629V25.5203C5.8335 25.0132 6.24613 24.6006 6.75327 24.6006H8.48811C8.4862 25.5536 8.48479 26.6422 8.48386 27.5488H6.75327Z" fill="white"/>
<path d="M14.9976 23.1871H14.8612C14.0404 23.1871 13.3726 23.8549 13.3726 24.6756V25.5971C13.3726 26.4179 14.0404 27.0856 14.8612 27.0856H14.9976C15.8184 27.0856 16.4861 26.4179 16.4861 25.5971V24.6756C16.4862 23.8548 15.8184 23.1871 14.9976 23.1871ZM15.5633 25.5971C15.5633 25.909 15.3096 26.1628 14.9976 26.1628H14.8612C14.5493 26.1628 14.2955 25.909 14.2955 25.5971V24.6756C14.2955 24.3638 14.5493 24.11 14.8612 24.11H14.9976C15.3096 24.11 15.5633 24.3638 15.5633 24.6756V25.5971Z" fill="white"/>
<path d="M20.2388 23.1871H20.1024C19.2815 23.1871 18.6138 23.8549 18.6138 24.6756V25.5971C18.6138 26.4179 19.2816 27.0856 20.1024 27.0856H20.2388C21.0596 27.0856 21.7273 26.4179 21.7273 25.5971V24.6756C21.7273 23.8548 21.0596 23.1871 20.2388 23.1871ZM20.8045 25.5971C20.8045 25.909 20.5507 26.1628 20.2388 26.1628H20.1024C19.7905 26.1628 19.5367 25.909 19.5367 25.5971V24.6756C19.5367 24.3638 19.7905 24.11 20.1024 24.11H20.2388C20.5507 24.11 20.8045 24.3638 20.8045 24.6756V25.5971Z" fill="white"/>
</g>
<defs>
<clipPath id="clip0">
<rect width="31.5" height="31.5" fill="white" transform="translate(1.79999 1.79999)"/>
</clipPath>
</defs>
</svg>
