<svg width="36" height="36" viewBox="0 0 36 36" fill="none" xmlns="http://www.w3.org/2000/svg">
<circle cx="18" cy="18" r="18" fill="#333333"/>
<g clip-path="url(#clip0)">
<path d="M18.0019 4.5C14.1447 4.5 10.9917 7.65305 10.9917 11.5102C10.9917 15.3674 14.1447 18.5204 18.0019 18.5204C21.8591 18.5204 25.0121 15.3674 25.0121 11.5102C25.0121 7.65305 21.8591 4.5 18.0019 4.5Z" fill="white"/>
<path d="M30.0325 24.1224C29.8488 23.6632 29.604 23.2347 29.3285 22.8367C27.9203 20.7551 25.7469 19.3775 23.2979 19.0408C22.9918 19.0102 22.655 19.0714 22.4101 19.2551C21.1244 20.204 19.5938 20.6938 18.0019 20.6938C16.4101 20.6938 14.8795 20.204 13.5937 19.2551C13.3488 19.0714 13.0121 18.9795 12.706 19.0408C10.257 19.3775 8.05294 20.7551 6.6754 22.8367C6.39989 23.2347 6.15497 23.6939 5.97134 24.1224C5.87952 24.3061 5.91011 24.5204 6.00193 24.7041C6.24685 25.1327 6.55294 25.5613 6.82845 25.9286C7.257 26.5103 7.7162 27.0306 8.23663 27.5204C8.66519 27.949 9.15497 28.3469 9.64482 28.7449C12.0632 30.5511 14.9713 31.5 17.9713 31.5C20.9714 31.5 23.8795 30.551 26.2979 28.7449C26.7877 28.3776 27.2774 27.949 27.7061 27.5204C28.1958 27.0306 28.6856 26.5102 29.1142 25.9286C29.4203 25.5306 29.6959 25.1327 29.9408 24.7041C30.0938 24.5204 30.1243 24.3061 30.0325 24.1224Z" fill="white"/>
</g>
<defs>
<clipPath id="clip0">
<rect width="27" height="27" fill="white" transform="translate(4.5 4.5)"/>
</clipPath>
</defs>
</svg>
